<?xml version="1.0" encoding="utf-8"?>
<!-- Generator: Adobe Illustrator 24.2.3, SVG Export Plug-In . SVG Version: 6.00 Build 0)  -->
<svg version="1.1" id="Capa_1" xmlns="http://www.w3.org/2000/svg" xmlns:xlink="http://www.w3.org/1999/xlink" x="0px" y="0px"
	 viewBox="0 0 320 34" style="enable-background:new 0 0 320 34;" xml:space="preserve">
<style type="text/css">
	.st0{fill-rule:evenodd;clip-rule:evenodd;}
	.st1{filter:url(#Adobe_OpacityMaskFilter);}
	.st2{fill-rule:evenodd;clip-rule:evenodd;fill:#FFFFFF;}
	.st3{mask:url(#prefix__b_1_);fill-rule:evenodd;clip-rule:evenodd;}
</style>
<g transform="translate(0 7)">
	<path class="st0" d="M12.2,12.5l-2-4.1C9.7,7.2,9.2,6.1,9.2,6.1H9.1L8.1,8.4l-2,4.1H12.2L12.2,12.5z M13.5,15.2H4.8l-1.5,3.2H0
		L8.9,0.1h0.6l8.9,18.3H15L13.5,15.2z M30.1,3.2H27v12.5h3.2c4.5,0,6.8-2.4,6.8-6.2C36.9,5.5,34.7,3.2,30.1,3.2L30.1,3.2z M23.8,0.4
		h6.4c6.5,0,10,3.7,10,9c0,5.3-3.6,9-10,9h-6.4L23.8,0.4L23.8,0.4z M61.5,9.4c0-3.8-2.5-6.4-6-6.4c-3.6,0-6.1,2.6-6.1,6.4
		s2.5,6.4,6.1,6.4C59,15.8,61.5,13.2,61.5,9.4 M64.9,9.4c0,5.3-3.8,9.4-9.4,9.4c-5.6,0-9.4-4.1-9.4-9.4c0-5.3,3.8-9.4,9.4-9.4
		C61,0,64.9,4.1,64.9,9.4 M71.5,18.4V0.4h3.2v15.3h9l-0.9,2.8H71.5z M89.3,0.4h12.1l-0.9,2.8h-8.1v4.7h8.5l-0.9,2.8h-7.7v7.8h-3.2
		V0.4z M121.9,9.4c0-3.8-2.5-6.4-6-6.4c-3.6,0-6.1,2.6-6.1,6.4s2.5,6.4,6.1,6.4C119.4,15.8,121.9,13.2,121.9,9.4 M125.2,9.4
		c0,5.3-3.8,9.4-9.4,9.4c-5.6,0-9.4-4.1-9.4-9.4c0-5.3,3.8-9.4,9.4-9.4C121.4,0,125.2,4.1,125.2,9.4 M138.2,3.2H135v12.5h3.2
		c4.5,0,6.8-2.4,6.8-6.2C145,5.5,142.7,3.2,138.2,3.2z M131.8,0.4h6.4c6.5,0,10,3.7,10,9c0,5.3-3.6,9-10,9h-6.4L131.8,0.4L131.8,0.4
		z M169.6,9.4c0-3.8-2.5-6.4-6-6.4c-3.6,0-6.1,2.6-6.1,6.4s2.5,6.4,6.1,6.4C167.1,15.8,169.6,13.2,169.6,9.4 M172.9,9.4
		c0,5.3-3.8,9.4-9.4,9.4c-5.6,0-9.4-4.1-9.4-9.4c0-5.3,3.8-9.4,9.4-9.4C169.1,0,172.9,4.1,172.9,9.4 M198.6,0.1v18.3h-3.1v-7.6
		c0-2.2,0-3.8,0-3.8h-0.1l-2.2,2.2l-4.2,4.3H189l-4.2-4.3l-2.2-2.2h-0.1c0,0,0,1.6,0,3.8v7.6h-3.1V0.1h0.7l7.6,7.9l1.2,1.3l1.3-1.3
		l7.6-7.9L198.6,0.1L198.6,0.1z"/>
	<defs>
		<filter id="Adobe_OpacityMaskFilter" filterUnits="userSpaceOnUse" x="0.1" y="0" width="319.9" height="26.8">
			<feColorMatrix  type="matrix" values="1 0 0 0 0  0 1 0 0 0  0 0 1 0 0  0 0 0 1 0"/>
		</filter>
	</defs>
	<mask maskUnits="userSpaceOnUse" x="0.1" y="0" width="319.9" height="26.8" id="prefix__b_1_">
		<g class="st1">
			<path id="prefix__a_1_" class="st2" d="M0,26.8h320V0H0V26.8z"/>
		</g>
	</mask>
	<path class="st3" d="M206,18.4h3.2V0.4H206V18.4z M232,0.4v18.1h-0.7l-9-9c-1.5-1.5-2.6-2.5-2.6-2.5h0c0,0,0,1.1,0,2.5v9h-3.2V0.3
		h0.7l8.9,9c1.4,1.4,2.6,2.5,2.6,2.5h0c0,0,0-1.5,0-2.5V0.4H232L232,0.4z M247.9,18.8c-5.4,0-9.3-4.1-9.3-9.4c0-5.3,3.9-9.4,9.3-9.4
		c4.3,0,7.7,2.6,8.9,6.3h-3.6c-1-2.1-2.9-3.4-5.3-3.4c-3.4,0-6,2.6-6,6.4c0,3.9,2.6,6.4,6,6.4c2.8,0,4.8-1.6,5.5-4.1h-5.5l0.9-2.8
		h8.2v0.5C257,14.6,253.4,18.8,247.9,18.8 M278.9,0.4v10.8c0,5.2-3.5,7.7-7.7,7.7c-4.2,0-7.8-2.5-7.8-7.7V0.4h3.2v10.7
		c0,2.8,1.5,4.8,4.6,4.8c3.1,0,4.5-2.1,4.5-4.8V0.4H278.9z M286.2,18.4V0.4h12.9l-0.9,2.8h-8.9v4.7h9.3l-0.9,2.8h-8.4v5h9.8
		l-0.9,2.8H286.2z M320,15.6l-0.9,2.8h-15.1v-0.1l10.3-15.2h-9.9l0.9-2.8h14.6v0.1l-10.3,15.2H320z M0.1,24h16.6l1.4,2.8H0.1V24z
		 M131.8,24h16.6l1.4,2.8h-17.9V24z"/>
</g>
</svg>
